<?xml version="1.0" standalone="no"?>
<!DOCTYPE svg PUBLIC "-//W3C//DTD SVG 1.1//EN" "http://www.w3.org/Graphics/SVG/1.1/DTD/svg11.dtd" >
<svg xmlns="http://www.w3.org/2000/svg" xmlns:xlink="http://www.w3.org/1999/xlink" version="1.1">
<metadata>
Created by FontForge 20201107 at Wed Jul 20 21:41:14 2016
 By Unknown
Copyright \(c\) 2016 by Jonathan Hill. All rights reserved.
</metadata>
<defs>
<font id="FONTSPRINGDEMO-KyloSansBoldRegular" horiz-adv-x="598" >
  <font-face 
    font-family="FONTSPRING DEMO - Kylo Sans Bold"
    font-weight="400"
    font-stretch="normal"
    units-per-em="1000"
    panose-1="0 0 5 0 0 0 0 0 0 0"
    ascent="800"
    descent="-200"
    x-height="500"
    cap-height="700"
    bbox="-53.1787 -231 904.46 743.11"
    underline-thickness="50"
    underline-position="-100"
    stemh="24"
    stemv="29"
    unicode-range="U+0020-007E"
  />
<missing-glyph 
d="M101 197c-3 0 -6 0 -9 -1v-98c2 -1 6 -1 9 -1c26 0 31 19 31 50c0 32 -5 50 -31 50v0zM253 161v-24h-40v-38h47v-24h-76v145h76v-25h-47v-34h40zM99 73c-8 0 -23 0 -36 2v143c13 2 27 4 37 4c45 0 61 -25 61 -75c0 -51 -17 -74 -62 -74v0zM286 220h39l19 -80l19 80h40
c2 -35 4 -98 6 -145h-29c0 34 -1 70 -3 104l-20 -82h-27l-20 82h-1c-1 -34 -2 -70 -2 -104h-28c1 47 4 110 7 145v0zM482 73c-40 0 -53 23 -53 74s13 75 53 75s54 -24 54 -75s-14 -74 -54 -74v0zM482 197c-20 0 -24 -17 -24 -50c0 -32 4 -50 24 -50c21 0 25 18 25 50
c0 33 -4 50 -25 50zM472 496c52 0 62 -42 62 -63c0 -31 -31 -49 -52 -52c-72 -8 -124 -31 -166 -72c0 0 73 187 156 187v0zM139 444c94 0 156 -187 156 -187c-41 52 -93 72 -156 72c-31 0 -62 21 -62 52c0 32 21 63 62 63v0zM314 593c67 -65 -19 -243 -19 -243
c7 66 -16 118 -61 161c-22 22 -30 58 -9 81c22 22 59 30 89 1v0z" />
    <glyph glyph-name=".notdef" 
d="M101 197c-3 0 -6 0 -9 -1v-98c2 -1 6 -1 9 -1c26 0 31 19 31 50c0 32 -5 50 -31 50v0zM253 161v-24h-40v-38h47v-24h-76v145h76v-25h-47v-34h40zM99 73c-8 0 -23 0 -36 2v143c13 2 27 4 37 4c45 0 61 -25 61 -75c0 -51 -17 -74 -62 -74v0zM286 220h39l19 -80l19 80h40
c2 -35 4 -98 6 -145h-29c0 34 -1 70 -3 104l-20 -82h-27l-20 82h-1c-1 -34 -2 -70 -2 -104h-28c1 47 4 110 7 145v0zM482 73c-40 0 -53 23 -53 74s13 75 53 75s54 -24 54 -75s-14 -74 -54 -74v0zM482 197c-20 0 -24 -17 -24 -50c0 -32 4 -50 24 -50c21 0 25 18 25 50
c0 33 -4 50 -25 50zM472 496c52 0 62 -42 62 -63c0 -31 -31 -49 -52 -52c-72 -8 -124 -31 -166 -72c0 0 73 187 156 187v0zM139 444c94 0 156 -187 156 -187c-41 52 -93 72 -156 72c-31 0 -62 21 -62 52c0 32 21 63 62 63v0zM314 593c67 -65 -19 -243 -19 -243
c7 66 -16 118 -61 161c-22 22 -30 58 -9 81c22 22 59 30 89 1v0z" />
    <glyph glyph-name="space" unicode=" " horiz-adv-x="250" 
 />
    <glyph glyph-name="exclam" unicode="!" 
d="M101 197c-3 0 -6 0 -9 -1v-98c2 -1 6 -1 9 -1c26 0 31 19 31 50c0 32 -5 50 -31 50v0zM253 161v-24h-40v-38h47v-24h-76v145h76v-25h-47v-34h40zM99 73c-8 0 -23 0 -36 2v143c13 2 27 4 37 4c45 0 61 -25 61 -75c0 -51 -17 -74 -62 -74v0zM286 220h39l19 -80l19 80h40
c2 -35 4 -98 6 -145h-29c0 34 -1 70 -3 104l-20 -82h-27l-20 82h-1c-1 -34 -2 -70 -2 -104h-28c1 47 4 110 7 145v0zM482 73c-40 0 -53 23 -53 74s13 75 53 75s54 -24 54 -75s-14 -74 -54 -74v0zM482 197c-20 0 -24 -17 -24 -50c0 -32 4 -50 24 -50c21 0 25 18 25 50
c0 33 -4 50 -25 50zM472 496c52 0 62 -42 62 -63c0 -31 -31 -49 -52 -52c-72 -8 -124 -31 -166 -72c0 0 73 187 156 187v0zM139 444c94 0 156 -187 156 -187c-41 52 -93 72 -156 72c-31 0 -62 21 -62 52c0 32 21 63 62 63v0zM314 593c67 -65 -19 -243 -19 -243
c7 66 -16 118 -61 161c-22 22 -30 58 -9 81c22 22 59 30 89 1v0z" />
    <glyph glyph-name="quotedbl" unicode="&#x22;" 
d="M101 197c-3 0 -6 0 -9 -1v-98c2 -1 6 -1 9 -1c26 0 31 19 31 50c0 32 -5 50 -31 50v0zM253 161v-24h-40v-38h47v-24h-76v145h76v-25h-47v-34h40zM99 73c-8 0 -23 0 -36 2v143c13 2 27 4 37 4c45 0 61 -25 61 -75c0 -51 -17 -74 -62 -74v0zM286 220h39l19 -80l19 80h40
c2 -35 4 -98 6 -145h-29c0 34 -1 70 -3 104l-20 -82h-27l-20 82h-1c-1 -34 -2 -70 -2 -104h-28c1 47 4 110 7 145v0zM482 73c-40 0 -53 23 -53 74s13 75 53 75s54 -24 54 -75s-14 -74 -54 -74v0zM482 197c-20 0 -24 -17 -24 -50c0 -32 4 -50 24 -50c21 0 25 18 25 50
c0 33 -4 50 -25 50zM472 496c52 0 62 -42 62 -63c0 -31 -31 -49 -52 -52c-72 -8 -124 -31 -166 -72c0 0 73 187 156 187v0zM139 444c94 0 156 -187 156 -187c-41 52 -93 72 -156 72c-31 0 -62 21 -62 52c0 32 21 63 62 63v0zM314 593c67 -65 -19 -243 -19 -243
c7 66 -16 118 -61 161c-22 22 -30 58 -9 81c22 22 59 30 89 1v0z" />
    <glyph glyph-name="numbersign" unicode="#" 
d="M101 197c-3 0 -6 0 -9 -1v-98c2 -1 6 -1 9 -1c26 0 31 19 31 50c0 32 -5 50 -31 50v0zM253 161v-24h-40v-38h47v-24h-76v145h76v-25h-47v-34h40zM99 73c-8 0 -23 0 -36 2v143c13 2 27 4 37 4c45 0 61 -25 61 -75c0 -51 -17 -74 -62 -74v0zM286 220h39l19 -80l19 80h40
c2 -35 4 -98 6 -145h-29c0 34 -1 70 -3 104l-20 -82h-27l-20 82h-1c-1 -34 -2 -70 -2 -104h-28c1 47 4 110 7 145v0zM482 73c-40 0 -53 23 -53 74s13 75 53 75s54 -24 54 -75s-14 -74 -54 -74v0zM482 197c-20 0 -24 -17 -24 -50c0 -32 4 -50 24 -50c21 0 25 18 25 50
c0 33 -4 50 -25 50zM472 496c52 0 62 -42 62 -63c0 -31 -31 -49 -52 -52c-72 -8 -124 -31 -166 -72c0 0 73 187 156 187v0zM139 444c94 0 156 -187 156 -187c-41 52 -93 72 -156 72c-31 0 -62 21 -62 52c0 32 21 63 62 63v0zM314 593c67 -65 -19 -243 -19 -243
c7 66 -16 118 -61 161c-22 22 -30 58 -9 81c22 22 59 30 89 1v0z" />
    <glyph glyph-name="dollar" unicode="$" 
d="M101 197c-3 0 -6 0 -9 -1v-98c2 -1 6 -1 9 -1c26 0 31 19 31 50c0 32 -5 50 -31 50v0zM253 161v-24h-40v-38h47v-24h-76v145h76v-25h-47v-34h40zM99 73c-8 0 -23 0 -36 2v143c13 2 27 4 37 4c45 0 61 -25 61 -75c0 -51 -17 -74 -62 -74v0zM286 220h39l19 -80l19 80h40
c2 -35 4 -98 6 -145h-29c0 34 -1 70 -3 104l-20 -82h-27l-20 82h-1c-1 -34 -2 -70 -2 -104h-28c1 47 4 110 7 145v0zM482 73c-40 0 -53 23 -53 74s13 75 53 75s54 -24 54 -75s-14 -74 -54 -74v0zM482 197c-20 0 -24 -17 -24 -50c0 -32 4 -50 24 -50c21 0 25 18 25 50
c0 33 -4 50 -25 50zM472 496c52 0 62 -42 62 -63c0 -31 -31 -49 -52 -52c-72 -8 -124 -31 -166 -72c0 0 73 187 156 187v0zM139 444c94 0 156 -187 156 -187c-41 52 -93 72 -156 72c-31 0 -62 21 -62 52c0 32 21 63 62 63v0zM314 593c67 -65 -19 -243 -19 -243
c7 66 -16 118 -61 161c-22 22 -30 58 -9 81c22 22 59 30 89 1v0z" />
    <glyph glyph-name="percent" unicode="%" 
d="M101 197c-3 0 -6 0 -9 -1v-98c2 -1 6 -1 9 -1c26 0 31 19 31 50c0 32 -5 50 -31 50v0zM253 161v-24h-40v-38h47v-24h-76v145h76v-25h-47v-34h40zM99 73c-8 0 -23 0 -36 2v143c13 2 27 4 37 4c45 0 61 -25 61 -75c0 -51 -17 -74 -62 -74v0zM286 220h39l19 -80l19 80h40
c2 -35 4 -98 6 -145h-29c0 34 -1 70 -3 104l-20 -82h-27l-20 82h-1c-1 -34 -2 -70 -2 -104h-28c1 47 4 110 7 145v0zM482 73c-40 0 -53 23 -53 74s13 75 53 75s54 -24 54 -75s-14 -74 -54 -74v0zM482 197c-20 0 -24 -17 -24 -50c0 -32 4 -50 24 -50c21 0 25 18 25 50
c0 33 -4 50 -25 50zM472 496c52 0 62 -42 62 -63c0 -31 -31 -49 -52 -52c-72 -8 -124 -31 -166 -72c0 0 73 187 156 187v0zM139 444c94 0 156 -187 156 -187c-41 52 -93 72 -156 72c-31 0 -62 21 -62 52c0 32 21 63 62 63v0zM314 593c67 -65 -19 -243 -19 -243
c7 66 -16 118 -61 161c-22 22 -30 58 -9 81c22 22 59 30 89 1v0z" />
    <glyph glyph-name="ampersand" unicode="&#x26;" 
d="M101 197c-3 0 -6 0 -9 -1v-98c2 -1 6 -1 9 -1c26 0 31 19 31 50c0 32 -5 50 -31 50v0zM253 161v-24h-40v-38h47v-24h-76v145h76v-25h-47v-34h40zM99 73c-8 0 -23 0 -36 2v143c13 2 27 4 37 4c45 0 61 -25 61 -75c0 -51 -17 -74 -62 -74v0zM286 220h39l19 -80l19 80h40
c2 -35 4 -98 6 -145h-29c0 34 -1 70 -3 104l-20 -82h-27l-20 82h-1c-1 -34 -2 -70 -2 -104h-28c1 47 4 110 7 145v0zM482 73c-40 0 -53 23 -53 74s13 75 53 75s54 -24 54 -75s-14 -74 -54 -74v0zM482 197c-20 0 -24 -17 -24 -50c0 -32 4 -50 24 -50c21 0 25 18 25 50
c0 33 -4 50 -25 50zM472 496c52 0 62 -42 62 -63c0 -31 -31 -49 -52 -52c-72 -8 -124 -31 -166 -72c0 0 73 187 156 187v0zM139 444c94 0 156 -187 156 -187c-41 52 -93 72 -156 72c-31 0 -62 21 -62 52c0 32 21 63 62 63v0zM314 593c67 -65 -19 -243 -19 -243
c7 66 -16 118 -61 161c-22 22 -30 58 -9 81c22 22 59 30 89 1v0z" />
    <glyph glyph-name="quotesingle" unicode="'" 
d="M101 197c-3 0 -6 0 -9 -1v-98c2 -1 6 -1 9 -1c26 0 31 19 31 50c0 32 -5 50 -31 50v0zM253 161v-24h-40v-38h47v-24h-76v145h76v-25h-47v-34h40zM99 73c-8 0 -23 0 -36 2v143c13 2 27 4 37 4c45 0 61 -25 61 -75c0 -51 -17 -74 -62 -74v0zM286 220h39l19 -80l19 80h40
c2 -35 4 -98 6 -145h-29c0 34 -1 70 -3 104l-20 -82h-27l-20 82h-1c-1 -34 -2 -70 -2 -104h-28c1 47 4 110 7 145v0zM482 73c-40 0 -53 23 -53 74s13 75 53 75s54 -24 54 -75s-14 -74 -54 -74v0zM482 197c-20 0 -24 -17 -24 -50c0 -32 4 -50 24 -50c21 0 25 18 25 50
c0 33 -4 50 -25 50zM472 496c52 0 62 -42 62 -63c0 -31 -31 -49 -52 -52c-72 -8 -124 -31 -166 -72c0 0 73 187 156 187v0zM139 444c94 0 156 -187 156 -187c-41 52 -93 72 -156 72c-31 0 -62 21 -62 52c0 32 21 63 62 63v0zM314 593c67 -65 -19 -243 -19 -243
c7 66 -16 118 -61 161c-22 22 -30 58 -9 81c22 22 59 30 89 1v0z" />
    <glyph glyph-name="parenleft" unicode="(" 
d="M101 197c-3 0 -6 0 -9 -1v-98c2 -1 6 -1 9 -1c26 0 31 19 31 50c0 32 -5 50 -31 50v0zM253 161v-24h-40v-38h47v-24h-76v145h76v-25h-47v-34h40zM99 73c-8 0 -23 0 -36 2v143c13 2 27 4 37 4c45 0 61 -25 61 -75c0 -51 -17 -74 -62 -74v0zM286 220h39l19 -80l19 80h40
c2 -35 4 -98 6 -145h-29c0 34 -1 70 -3 104l-20 -82h-27l-20 82h-1c-1 -34 -2 -70 -2 -104h-28c1 47 4 110 7 145v0zM482 73c-40 0 -53 23 -53 74s13 75 53 75s54 -24 54 -75s-14 -74 -54 -74v0zM482 197c-20 0 -24 -17 -24 -50c0 -32 4 -50 24 -50c21 0 25 18 25 50
c0 33 -4 50 -25 50zM472 496c52 0 62 -42 62 -63c0 -31 -31 -49 -52 -52c-72 -8 -124 -31 -166 -72c0 0 73 187 156 187v0zM139 444c94 0 156 -187 156 -187c-41 52 -93 72 -156 72c-31 0 -62 21 -62 52c0 32 21 63 62 63v0zM314 593c67 -65 -19 -243 -19 -243
c7 66 -16 118 -61 161c-22 22 -30 58 -9 81c22 22 59 30 89 1v0z" />
    <glyph glyph-name="parenright" unicode=")" 
d="M101 197c-3 0 -6 0 -9 -1v-98c2 -1 6 -1 9 -1c26 0 31 19 31 50c0 32 -5 50 -31 50v0zM253 161v-24h-40v-38h47v-24h-76v145h76v-25h-47v-34h40zM99 73c-8 0 -23 0 -36 2v143c13 2 27 4 37 4c45 0 61 -25 61 -75c0 -51 -17 -74 -62 -74v0zM286 220h39l19 -80l19 80h40
c2 -35 4 -98 6 -145h-29c0 34 -1 70 -3 104l-20 -82h-27l-20 82h-1c-1 -34 -2 -70 -2 -104h-28c1 47 4 110 7 145v0zM482 73c-40 0 -53 23 -53 74s13 75 53 75s54 -24 54 -75s-14 -74 -54 -74v0zM482 197c-20 0 -24 -17 -24 -50c0 -32 4 -50 24 -50c21 0 25 18 25 50
c0 33 -4 50 -25 50zM472 496c52 0 62 -42 62 -63c0 -31 -31 -49 -52 -52c-72 -8 -124 -31 -166 -72c0 0 73 187 156 187v0zM139 444c94 0 156 -187 156 -187c-41 52 -93 72 -156 72c-31 0 -62 21 -62 52c0 32 21 63 62 63v0zM314 593c67 -65 -19 -243 -19 -243
c7 66 -16 118 -61 161c-22 22 -30 58 -9 81c22 22 59 30 89 1v0z" />
    <glyph glyph-name="asterisk" unicode="*" 
d="M101 197c-3 0 -6 0 -9 -1v-98c2 -1 6 -1 9 -1c26 0 31 19 31 50c0 32 -5 50 -31 50v0zM253 161v-24h-40v-38h47v-24h-76v145h76v-25h-47v-34h40zM99 73c-8 0 -23 0 -36 2v143c13 2 27 4 37 4c45 0 61 -25 61 -75c0 -51 -17 -74 -62 -74v0zM286 220h39l19 -80l19 80h40
c2 -35 4 -98 6 -145h-29c0 34 -1 70 -3 104l-20 -82h-27l-20 82h-1c-1 -34 -2 -70 -2 -104h-28c1 47 4 110 7 145v0zM482 73c-40 0 -53 23 -53 74s13 75 53 75s54 -24 54 -75s-14 -74 -54 -74v0zM482 197c-20 0 -24 -17 -24 -50c0 -32 4 -50 24 -50c21 0 25 18 25 50
c0 33 -4 50 -25 50zM472 496c52 0 62 -42 62 -63c0 -31 -31 -49 -52 -52c-72 -8 -124 -31 -166 -72c0 0 73 187 156 187v0zM139 444c94 0 156 -187 156 -187c-41 52 -93 72 -156 72c-31 0 -62 21 -62 52c0 32 21 63 62 63v0zM314 593c67 -65 -19 -243 -19 -243
c7 66 -16 118 -61 161c-22 22 -30 58 -9 81c22 22 59 30 89 1v0z" />
    <glyph glyph-name="plus" unicode="+" 
d="M101 197c-3 0 -6 0 -9 -1v-98c2 -1 6 -1 9 -1c26 0 31 19 31 50c0 32 -5 50 -31 50v0zM253 161v-24h-40v-38h47v-24h-76v145h76v-25h-47v-34h40zM99 73c-8 0 -23 0 -36 2v143c13 2 27 4 37 4c45 0 61 -25 61 -75c0 -51 -17 -74 -62 -74v0zM286 220h39l19 -80l19 80h40
c2 -35 4 -98 6 -145h-29c0 34 -1 70 -3 104l-20 -82h-27l-20 82h-1c-1 -34 -2 -70 -2 -104h-28c1 47 4 110 7 145v0zM482 73c-40 0 -53 23 -53 74s13 75 53 75s54 -24 54 -75s-14 -74 -54 -74v0zM482 197c-20 0 -24 -17 -24 -50c0 -32 4 -50 24 -50c21 0 25 18 25 50
c0 33 -4 50 -25 50zM472 496c52 0 62 -42 62 -63c0 -31 -31 -49 -52 -52c-72 -8 -124 -31 -166 -72c0 0 73 187 156 187v0zM139 444c94 0 156 -187 156 -187c-41 52 -93 72 -156 72c-31 0 -62 21 -62 52c0 32 21 63 62 63v0zM314 593c67 -65 -19 -243 -19 -243
c7 66 -16 118 -61 161c-22 22 -30 58 -9 81c22 22 59 30 89 1v0z" />
    <glyph glyph-name="comma" unicode="," horiz-adv-x="287" 
d="M233.81 75.5098c0 -13.1396 -2.7998 -25.6309 -7.83008 -36.9004l-84.0195 -204.44l-87.04 7.69043l56.3496 148.97c-34.1797 12.9404 -58.4795 45.9707 -58.4795 84.6807c0 49.9902 40.5195 90.5098 90.5098 90.5098s90.5098 -40.5195 90.5098 -90.5098z" />
    <glyph glyph-name="hyphen" unicode="-" 
d="M101 197c-3 0 -6 0 -9 -1v-98c2 -1 6 -1 9 -1c26 0 31 19 31 50c0 32 -5 50 -31 50v0zM253 161v-24h-40v-38h47v-24h-76v145h76v-25h-47v-34h40zM99 73c-8 0 -23 0 -36 2v143c13 2 27 4 37 4c45 0 61 -25 61 -75c0 -51 -17 -74 -62 -74v0zM286 220h39l19 -80l19 80h40
c2 -35 4 -98 6 -145h-29c0 34 -1 70 -3 104l-20 -82h-27l-20 82h-1c-1 -34 -2 -70 -2 -104h-28c1 47 4 110 7 145v0zM482 73c-40 0 -53 23 -53 74s13 75 53 75s54 -24 54 -75s-14 -74 -54 -74v0zM482 197c-20 0 -24 -17 -24 -50c0 -32 4 -50 24 -50c21 0 25 18 25 50
c0 33 -4 50 -25 50zM472 496c52 0 62 -42 62 -63c0 -31 -31 -49 -52 -52c-72 -8 -124 -31 -166 -72c0 0 73 187 156 187v0zM139 444c94 0 156 -187 156 -187c-41 52 -93 72 -156 72c-31 0 -62 21 -62 52c0 32 21 63 62 63v0zM314 593c67 -65 -19 -243 -19 -243
c7 66 -16 118 -61 161c-22 22 -30 58 -9 81c22 22 59 30 89 1v0z" />
    <glyph glyph-name="period" unicode="." horiz-adv-x="287" 
d="M143.44 -15c-49.9902 0 -90.5098 40.5195 -90.5098 90.5098s40.5195 90.5098 90.5098 90.5098s90.5098 -40.5195 90.5098 -90.5098s-40.5195 -90.5098 -90.5098 -90.5098z" />
    <glyph glyph-name="slash" unicode="/" 
d="M101 197c-3 0 -6 0 -9 -1v-98c2 -1 6 -1 9 -1c26 0 31 19 31 50c0 32 -5 50 -31 50v0zM253 161v-24h-40v-38h47v-24h-76v145h76v-25h-47v-34h40zM99 73c-8 0 -23 0 -36 2v143c13 2 27 4 37 4c45 0 61 -25 61 -75c0 -51 -17 -74 -62 -74v0zM286 220h39l19 -80l19 80h40
c2 -35 4 -98 6 -145h-29c0 34 -1 70 -3 104l-20 -82h-27l-20 82h-1c-1 -34 -2 -70 -2 -104h-28c1 47 4 110 7 145v0zM482 73c-40 0 -53 23 -53 74s13 75 53 75s54 -24 54 -75s-14 -74 -54 -74v0zM482 197c-20 0 -24 -17 -24 -50c0 -32 4 -50 24 -50c21 0 25 18 25 50
c0 33 -4 50 -25 50zM472 496c52 0 62 -42 62 -63c0 -31 -31 -49 -52 -52c-72 -8 -124 -31 -166 -72c0 0 73 187 156 187v0zM139 444c94 0 156 -187 156 -187c-41 52 -93 72 -156 72c-31 0 -62 21 -62 52c0 32 21 63 62 63v0zM314 593c67 -65 -19 -243 -19 -243
c7 66 -16 118 -61 161c-22 22 -30 58 -9 81c22 22 59 30 89 1v0z" />
    <glyph glyph-name="zero" unicode="0" horiz-adv-x="678" 
d="M338.73 -14.9697c-185.6 0 -295.801 131.9 -295.801 355.011c0 223.1 109.81 354.949 295.79 354.949c186.28 0 295.971 -131.85 295.971 -354.949c0 -223.11 -109.99 -355.011 -295.96 -355.011zM338.729 119.221c75.7695 0 122.02 77.2305 122.02 220.811
c0 143.59 -46.5303 220.77 -122.03 220.77c-75.0996 0 -121.85 -77.1797 -121.85 -220.77c0 -143.58 46.3604 -220.811 121.86 -220.811z" />
    <glyph glyph-name="one" unicode="1" horiz-adv-x="401" 
d="M221.92 680h117.99v-680h-159.8v512.46l-102.2 -69.0801l-63.1504 93.3896z" />
    <glyph glyph-name="two" unicode="2" horiz-adv-x="564" 
d="M317.75 220.04c-56.6602 -40.4404 -89.6592 -65.7305 -107.14 -90.8506h302.24v-129.19h-482.85v101.11c-0.0400391 108.62 46.5 142.87 192.61 248.15c117.1 84.79 130.409 100.19 130.279 146.62c0.129883 47.4805 -22.3105 65.6201 -85.8301 65.3701
c-40.3096 -0.19043 -89.3994 -7.13086 -148.439 -37.5811l-77.2998 116.01c79.3203 39.6299 151.2 55.3203 231.34 55.3203c166.97 0 254.52 -68.0996 254.27 -206.279c0.25 -125.34 -72.4805 -170.76 -209.181 -268.68z" />
    <glyph glyph-name="three" unicode="3" horiz-adv-x="554" 
d="M379.81 362.76c90.6602 -18.5596 131.119 -74.1094 131.119 -172.76c0 -135 -77.2197 -200.88 -250.59 -205c-82.0195 -1.96973 -157.789 9.62012 -233.759 35.5098l79.4004 117.81c37.1602 -13.4297 83.3906 -20.9102 125.061 -19.5498
c62.9297 2.07031 88.6699 28.2803 88.6699 85.54c0 59.3203 -27.1699 87.7803 -86.3398 87.9307h-80.4102l0.0898438 62.7803h-0.0800781l0.0195312 50.1201h84.8096c49.7305 0 73.4502 25.2002 73.4502 78.5703c0 54.8496 -25.25 77.0898 -82.6299 77.0898
c-39.6602 0 -78.0205 -10.7695 -114.521 -28.96l-75.8799 113.64c77.6797 36.5195 145.939 49.5195 218.539 49.5195c150.61 0 231.19 -57 229.011 -187c-1.29004 -81.4004 -34.0498 -128 -105.96 -145.24z" />
    <glyph glyph-name="four" unicode="4" 
d="M101 197c-3 0 -6 0 -9 -1v-98c2 -1 6 -1 9 -1c26 0 31 19 31 50c0 32 -5 50 -31 50v0zM253 161v-24h-40v-38h47v-24h-76v145h76v-25h-47v-34h40zM99 73c-8 0 -23 0 -36 2v143c13 2 27 4 37 4c45 0 61 -25 61 -75c0 -51 -17 -74 -62 -74v0zM286 220h39l19 -80l19 80h40
c2 -35 4 -98 6 -145h-29c0 34 -1 70 -3 104l-20 -82h-27l-20 82h-1c-1 -34 -2 -70 -2 -104h-28c1 47 4 110 7 145v0zM482 73c-40 0 -53 23 -53 74s13 75 53 75s54 -24 54 -75s-14 -74 -54 -74v0zM482 197c-20 0 -24 -17 -24 -50c0 -32 4 -50 24 -50c21 0 25 18 25 50
c0 33 -4 50 -25 50zM472 496c52 0 62 -42 62 -63c0 -31 -31 -49 -52 -52c-72 -8 -124 -31 -166 -72c0 0 73 187 156 187v0zM139 444c94 0 156 -187 156 -187c-41 52 -93 72 -156 72c-31 0 -62 21 -62 52c0 32 21 63 62 63v0zM314 593c67 -65 -19 -243 -19 -243
c7 66 -16 118 -61 161c-22 22 -30 58 -9 81c22 22 59 30 89 1v0z" />
    <glyph glyph-name="five" unicode="5" horiz-adv-x="577" 
d="M280.23 423.87c173.8 -2.96973 263.73 -62.5918 263.73 -214.032c0 -143.02 -77.4404 -220.319 -263.73 -224.839c-80.1396 -2 -166.739 10 -247.06 39.2695l81.0098 119.61c46.75 -16.3701 96.7402 -26.5303 156.91 -24.6904
c79.0596 2.32031 99.1895 24.4902 99.1895 94.2705c0 69.1504 -25.96 85.2705 -99.1904 88.501c-59.4102 2.69043 -113.55 0.0507812 -184.31 -12.3496l18.9805 390.39h395.86v-129.2h-262.53l-6.74023 -127.68c16.1201 0.769531 32.1396 1.01953 47.8799 0.75z" />
    <glyph glyph-name="six" unicode="6" horiz-adv-x="603" 
d="M369.04 454.7c140.24 0 204.12 -88.6904 203.851 -227.96c0 -163.59 -98.54 -241.74 -258.771 -241.74c-179.74 0 -271.19 90 -271.19 273.19c0 182.12 87.5098 323.851 271.64 435.78l190.37 -17.1504c-147.97 -89.0898 -230.279 -166.27 -266.02 -266.779
c33.4102 30.5195 74.4902 44.6592 130.12 44.6592zM312.78 118.51c57.8896 0 88.3818 31.7607 88.3818 110.19c0 80.7402 -31.7803 108.87 -90.0605 108.87c-43.7305 0 -64.6807 -15.71 -93.4404 -43.4902c-0.370117 -8.37012 -0.560547 -16.9004 -0.560547 -25.6201
c0 -104.28 25.7695 -149.95 95.6797 -149.95z" />
    <glyph glyph-name="seven" unicode="7" horiz-adv-x="497" 
d="M473.98 550.8l0.0214844 -17.7002l-242.95 -533.1l-169.2 0.0400391l259.43 550.76h-303.11v129.2h455.81v-129.2z" />
    <glyph glyph-name="eight" unicode="8" horiz-adv-x="619" 
d="M462.89 348.85c85.0898 -51.8896 114.59 -94.6807 114.59 -170.98c0 -132.46 -89.6201 -192.87 -269.74 -192.87c-180.13 0 -266.39 60.4102 -266.39 195.92c0 74.3301 26.7002 119.16 115.12 173.97c-57.1904 39.1904 -88.8604 84.4102 -88.8604 163.82
c0 117.51 68.2695 176.29 242.479 176.29c176.2 0 241.12 -59.4502 241.12 -178.34c0 -80.5898 -29.8896 -127.14 -88.3193 -167.81zM310.729 581.278c-64.7803 0 -79.1895 -16.1992 -79.1895 -64.8896c0 -39.4199 7.09961 -50.9502 81.3301 -88.4307
c67.4404 35.0303 74.4102 50.0303 74.4102 87.4307c0 50.8496 -14.3604 65.8896 -76.5508 65.8896zM309.41 112.369c70.1104 0 95.2695 17.8506 95.2695 67.2803c0 43.2695 -18.1104 55.0498 -98.6699 95.0498c-75.1396 -37.5801 -91.8594 -52.96 -91.8594 -96.3701
c0 -47.8896 24.3096 -65.96 95.2598 -65.96z" />
    <glyph glyph-name="nine" unicode="9" horiz-adv-x="603" 
d="M288.53 693.97c179.74 0 271.18 -90 271.18 -273.19c0 -182.12 -87.5 -323.851 -271.63 -435.78l-190.37 17.1504c147.96 89.0898 230.27 166.27 266.02 266.779c-33.4199 -30.5195 -74.4902 -44.6592 -130.12 -44.6592c-140.25 0 -204.13 88.6797 -203.85 227.96
c0 163.59 98.54 241.74 258.771 241.74zM291.529 341.399c43.7402 0 64.7012 15.6992 93.4512 43.4893c0.379883 8.37012 0.55957 16.9004 0.55957 25.6201c0 104.28 -25.7803 149.95 -95.6904 149.95c-57.8896 0 -88.3701 -31.7598 -88.3701 -110.189
c0 -80.7402 31.7803 -108.87 90.0498 -108.87z" />
    <glyph glyph-name="colon" unicode=":" horiz-adv-x="287" 
d="M143.44 362.99c-49.9902 0 -90.5098 40.5195 -90.5098 90.5098c0 49.9805 40.5195 90.5107 90.5098 90.5107s90.5098 -40.5303 90.5098 -90.5107c0 -49.9902 -40.5195 -90.5098 -90.5098 -90.5098zM143.44 -15c-49.9902 0 -90.5098 40.5195 -90.5098 90.5098
s40.5195 90.5098 90.5098 90.5098s90.5098 -40.5195 90.5098 -90.5098s-40.5195 -90.5098 -90.5098 -90.5098z" />
    <glyph glyph-name="semicolon" unicode=";" horiz-adv-x="287" 
d="M143.3 362.99c-49.9902 0 -90.5098 40.5195 -90.5098 90.5098c0 49.9805 40.5195 90.5107 90.5098 90.5107s90.5098 -40.5303 90.5098 -90.5107c0 -49.9902 -40.5195 -90.5098 -90.5098 -90.5098zM143.3 166.021c49.9902 0 90.5098 -40.5195 90.5098 -90.5098
c0 -13.1396 -2.7998 -25.6299 -7.83008 -36.8994l-84.0195 -204.44l-87.04 7.69043l56.3701 148.96c-34.1904 12.9297 -58.5 45.9697 -58.5 84.6895c0 49.9902 40.5195 90.5098 90.5098 90.5098z" />
    <glyph glyph-name="less" unicode="&#x3c;" 
d="M101 197c-3 0 -6 0 -9 -1v-98c2 -1 6 -1 9 -1c26 0 31 19 31 50c0 32 -5 50 -31 50v0zM253 161v-24h-40v-38h47v-24h-76v145h76v-25h-47v-34h40zM99 73c-8 0 -23 0 -36 2v143c13 2 27 4 37 4c45 0 61 -25 61 -75c0 -51 -17 -74 -62 -74v0zM286 220h39l19 -80l19 80h40
c2 -35 4 -98 6 -145h-29c0 34 -1 70 -3 104l-20 -82h-27l-20 82h-1c-1 -34 -2 -70 -2 -104h-28c1 47 4 110 7 145v0zM482 73c-40 0 -53 23 -53 74s13 75 53 75s54 -24 54 -75s-14 -74 -54 -74v0zM482 197c-20 0 -24 -17 -24 -50c0 -32 4 -50 24 -50c21 0 25 18 25 50
c0 33 -4 50 -25 50zM472 496c52 0 62 -42 62 -63c0 -31 -31 -49 -52 -52c-72 -8 -124 -31 -166 -72c0 0 73 187 156 187v0zM139 444c94 0 156 -187 156 -187c-41 52 -93 72 -156 72c-31 0 -62 21 -62 52c0 32 21 63 62 63v0zM314 593c67 -65 -19 -243 -19 -243
c7 66 -16 118 -61 161c-22 22 -30 58 -9 81c22 22 59 30 89 1v0z" />
    <glyph glyph-name="equal" unicode="=" 
d="M101 197c-3 0 -6 0 -9 -1v-98c2 -1 6 -1 9 -1c26 0 31 19 31 50c0 32 -5 50 -31 50v0zM253 161v-24h-40v-38h47v-24h-76v145h76v-25h-47v-34h40zM99 73c-8 0 -23 0 -36 2v143c13 2 27 4 37 4c45 0 61 -25 61 -75c0 -51 -17 -74 -62 -74v0zM286 220h39l19 -80l19 80h40
c2 -35 4 -98 6 -145h-29c0 34 -1 70 -3 104l-20 -82h-27l-20 82h-1c-1 -34 -2 -70 -2 -104h-28c1 47 4 110 7 145v0zM482 73c-40 0 -53 23 -53 74s13 75 53 75s54 -24 54 -75s-14 -74 -54 -74v0zM482 197c-20 0 -24 -17 -24 -50c0 -32 4 -50 24 -50c21 0 25 18 25 50
c0 33 -4 50 -25 50zM472 496c52 0 62 -42 62 -63c0 -31 -31 -49 -52 -52c-72 -8 -124 -31 -166 -72c0 0 73 187 156 187v0zM139 444c94 0 156 -187 156 -187c-41 52 -93 72 -156 72c-31 0 -62 21 -62 52c0 32 21 63 62 63v0zM314 593c67 -65 -19 -243 -19 -243
c7 66 -16 118 -61 161c-22 22 -30 58 -9 81c22 22 59 30 89 1v0z" />
    <glyph glyph-name="greater" unicode="&#x3e;" 
d="M101 197c-3 0 -6 0 -9 -1v-98c2 -1 6 -1 9 -1c26 0 31 19 31 50c0 32 -5 50 -31 50v0zM253 161v-24h-40v-38h47v-24h-76v145h76v-25h-47v-34h40zM99 73c-8 0 -23 0 -36 2v143c13 2 27 4 37 4c45 0 61 -25 61 -75c0 -51 -17 -74 -62 -74v0zM286 220h39l19 -80l19 80h40
c2 -35 4 -98 6 -145h-29c0 34 -1 70 -3 104l-20 -82h-27l-20 82h-1c-1 -34 -2 -70 -2 -104h-28c1 47 4 110 7 145v0zM482 73c-40 0 -53 23 -53 74s13 75 53 75s54 -24 54 -75s-14 -74 -54 -74v0zM482 197c-20 0 -24 -17 -24 -50c0 -32 4 -50 24 -50c21 0 25 18 25 50
c0 33 -4 50 -25 50zM472 496c52 0 62 -42 62 -63c0 -31 -31 -49 -52 -52c-72 -8 -124 -31 -166 -72c0 0 73 187 156 187v0zM139 444c94 0 156 -187 156 -187c-41 52 -93 72 -156 72c-31 0 -62 21 -62 52c0 32 21 63 62 63v0zM314 593c67 -65 -19 -243 -19 -243
c7 66 -16 118 -61 161c-22 22 -30 58 -9 81c22 22 59 30 89 1v0z" />
    <glyph glyph-name="question" unicode="?" horiz-adv-x="506" 
d="M152.98 242.32l-2 56.79c-3.36035 82.9502 25.6895 93.1299 75.5898 119.35c56.0303 29.4404 62.25 36.4404 62.5703 72.3008c-0.320312 75.5 -32.7607 90.04 -76.7305 90.04c-27.5996 0 -63.04 -5.62988 -107.53 -24.8398l-73.5303 114.6
c63.5098 28.3896 134.649 44.4395 207.84 44.4395c145.34 0 225.479 -64.1504 223.8 -204.92c-1.67969 -136.15 -78.5596 -154.2 -148.51 -193.51c-16.6299 -9.32031 -23.7598 -15.54 -25.7598 -42.2598l-1.63965 -31.9902h-134.1zM220.511 -15
c-49.3799 0 -88.6699 39.9697 -88.8701 88.9697c0.200195 49.0801 39.4902 89.0498 88.8701 89.0498c48.7002 0 89.3506 -39.9697 89.0811 -89.0098c0.269531 -49.04 -40.3809 -89.0098 -89.0811 -89.0098z" />
    <glyph glyph-name="at" unicode="@" 
d="M101 197c-3 0 -6 0 -9 -1v-98c2 -1 6 -1 9 -1c26 0 31 19 31 50c0 32 -5 50 -31 50v0zM253 161v-24h-40v-38h47v-24h-76v145h76v-25h-47v-34h40zM99 73c-8 0 -23 0 -36 2v143c13 2 27 4 37 4c45 0 61 -25 61 -75c0 -51 -17 -74 -62 -74v0zM286 220h39l19 -80l19 80h40
c2 -35 4 -98 6 -145h-29c0 34 -1 70 -3 104l-20 -82h-27l-20 82h-1c-1 -34 -2 -70 -2 -104h-28c1 47 4 110 7 145v0zM482 73c-40 0 -53 23 -53 74s13 75 53 75s54 -24 54 -75s-14 -74 -54 -74v0zM482 197c-20 0 -24 -17 -24 -50c0 -32 4 -50 24 -50c21 0 25 18 25 50
c0 33 -4 50 -25 50zM472 496c52 0 62 -42 62 -63c0 -31 -31 -49 -52 -52c-72 -8 -124 -31 -166 -72c0 0 73 187 156 187v0zM139 444c94 0 156 -187 156 -187c-41 52 -93 72 -156 72c-31 0 -62 21 -62 52c0 32 21 63 62 63v0zM314 593c67 -65 -19 -243 -19 -243
c7 66 -16 118 -61 161c-22 22 -30 58 -9 81c22 22 59 30 89 1v0z" />
    <glyph glyph-name="A" unicode="A" horiz-adv-x="724" 
d="M534.6 0l-54.4395 173.03h-235.94l-54.4404 -173.03h-163.43l245.71 700h180.26l245.71 -700h-163.43zM284.87 302.23h154.641l-77.3203 245.75z" />
    <glyph glyph-name="B" unicode="B" horiz-adv-x="634" 
d="M466.15 373.65c86.0996 -16.5195 130.869 -74.5 131.189 -171.02c-0.429688 -139.63 -70.79 -202.51 -221.59 -202.45h-151.43v-0.179688h-159.8v700h297.58c133.74 0 204.09 -66 204.09 -183c0 -79.9697 -32.3301 -127.91 -100.04 -143.351zM326.971 570.801h-102.649
v-152.73h102.62c46.8896 0.110352 66.1895 19.2207 66.1895 76.1406c0 56.21 -18.6104 76.5898 -66.1602 76.5898zM346.241 129.19c53.7803 0 77.9102 23.1895 77.9102 87.8398c0 62.54 -22.75 87.1602 -78.04 87.1797h-121.79v-175.02h121.92z" />
    <glyph glyph-name="C" unicode="C" horiz-adv-x="650" 
d="M389.31 -15c-225.09 2 -336.377 148.999 -336.377 365.999c0 228 122.45 361.84 336.38 364c96.0498 1 171.96 -25 220.79 -59.0898l-75.3799 -113.28c-35.4404 25.0303 -76.6709 40.6406 -133.48 38.8506c-101.38 -3.30957 -174.86 -60.8994 -174.86 -231.489
c0 -172.23 75.4297 -228.011 174.859 -231.48c61.9297 -2.32031 105.77 18.6201 133.449 38.8301l75.3398 -113.22c-47.7402 -33.1201 -123.94 -60.0303 -220.721 -59.1201z" />
    <glyph glyph-name="D" unicode="D" horiz-adv-x="693" 
d="M314.56 700c204.85 0 325.899 -120.581 325.899 -349.971s-121.05 -350.029 -325.88 -350.029h-250.06v700h250.04zM306.239 129.609c106.44 0 161.21 70.4287 161.21 220.409s-54.7598 220.36 -161.22 220.36h-81.9102v-440.77h81.9199z" />
    <glyph glyph-name="E" unicode="E" horiz-adv-x="561" 
d="M224.32 129.19l299.99 0.000976562v-129.19h-459.79v700h451.79v-129.2h-291.99v-140.16h273.26v-129.2h-273.26v-172.25z" />
    <glyph glyph-name="F" unicode="F" horiz-adv-x="537" 
d="M500.31 570.8l-275.99 0.000976562v-152.16h245.26v-129.2h-245.26v-289.44h-159.8v700h435.79v-129.2z" />
    <glyph glyph-name="G" unicode="G" horiz-adv-x="716" 
d="M656.61 389.01l-0.00292969 -388.999l-131.83 -11.4502l-12.2402 67.6504c-42.7695 -49.46 -95.6396 -71.1904 -168.659 -71.1709c-185.19 -0.0302734 -290.95 135.97 -290.95 358.51c0 244.55 128.1 369.46 337.51 371.46c98.7305 1 183.78 -25 241.221 -68.4502
l-75.2695 -113.25c-46.5098 34.8096 -95.0596 48.3291 -150.13 47.4893c-124.64 0 -179.159 -77.79 -179.159 -229.12c0 -161.06 61.2002 -232.489 170.5 -232.459c47.1504 -0.0195312 74.8008 13.4502 105.121 37.5098v116.05h-131.29v116.23h285.18z" />
    <glyph glyph-name="H" unicode="H" horiz-adv-x="703" 
d="M479.17 700h159.8v-700h-159.8v301.44h-254.85v-301.44h-159.8v700h159.8v-269.36h254.85v269.36z" />
    <glyph glyph-name="I" unicode="I" horiz-adv-x="289" 
d="M64.5195 700h159.8v-700h-159.8v700z" />
    <glyph glyph-name="J" unicode="J" horiz-adv-x="432" 
d="M161.96 -16c-57.8896 0 -103.91 15.6797 -135.61 38.4893l43.6201 111.57c27.1699 -11.0703 46.3203 -15.21 63.6504 -15.1797c46.0801 0 77.4697 26.71 77.3594 92.6299v488.49h159.51v-511.04c0.110352 -127.96 -79.6895 -204.96 -208.529 -204.96z" />
    <glyph glyph-name="K" unicode="K" horiz-adv-x="660" 
d="M64.5195 0v700h159.8v-700h-159.8zM398.43 375.86l235.479 -375.86l-197.34 -0.0195312l-206 377.21l195.54 322.81h194.29z" />
    <glyph glyph-name="L" unicode="L" horiz-adv-x="511" 
d="M224.32 129.19h259.99v-129.19h-419.79v700h159.8v-570.81z" />
    <glyph glyph-name="M" unicode="M" horiz-adv-x="883" 
d="M818.65 700l0.000976562 -700h-155.25v516.44l-120.49 -516.44h-207.65l-120.49 516.43v-516.43h-155.25v700h265.04l114.53 -535.47l114.52 535.47h265.04z" />
    <glyph glyph-name="N" unicode="N" horiz-adv-x="689" 
d="M483.48 699.52h146.15v-699.52h-176.93l-247.03 469.14v-469.14h-146.15v700h178.32l245.64 -466.48v466z" />
    <glyph glyph-name="O" unicode="O" horiz-adv-x="791" 
d="M395.26 -14.9102c-215.18 0 -342.329 135.55 -342.329 364.939s127.41 364.96 342.58 364.96c213.93 0 342.06 -135.57 342.06 -364.96s-127.15 -364.939 -342.311 -364.939zM395.261 119.25c108.82 0 168.689 78.6289 168.689 230.769
c0 152.15 -59.5996 230.771 -168.439 230.771c-108.82 0 -168.96 -76.7695 -168.96 -230.77c0 -152.14 59.8701 -230.77 168.71 -230.77z" />
    <glyph glyph-name="P" unicode="P" horiz-adv-x="625" 
d="M314.83 700c175 0 266.63 -86.1201 266.63 -237.37s-92.7402 -236.38 -266.63 -236.439h-90.5098v-226.19h-159.8v700h250.31zM304.4 355.44c76.0098 0 103.439 32.7803 103.439 108.11c0 75.9102 -28.21 107.25 -103.05 107.25h-80.4697v-215.36h80.0801z" />
    <glyph glyph-name="Q" unicode="Q" horiz-adv-x="791" 
d="M737.57 350.03c0 -171.44 -71.0186 -290.469 -196.729 -339.659l117.89 -137.23l-189.37 -16.8203l-81.3604 128.82c-210.78 3.01953 -335.07 138.09 -335.07 364.89c0 229.39 127.41 364.96 342.58 364.96c214.29 0 342.06 -135.57 342.06 -364.96zM226.551 350.032
c0 -152.14 59.8691 -230.771 168.709 -230.771c108.82 0 168.69 78.6299 168.69 230.77c0 152.15 -59.5996 230.771 -168.439 230.771c-108.82 0 -168.96 -76.7695 -168.96 -230.77z" />
    <glyph glyph-name="R" unicode="R" horiz-adv-x="639" 
d="M418.38 0l-122.779 258.72h-71.2803v-258.72h-159.8v700h264.43c162.99 0 248.33 -80.2002 248.33 -221.07c0 -99.8896 -43.4297 -168.81 -126.439 -200.479l162.27 -278.45h-194.73zM224.32 570.8l0.000976562 -182.88h93.8203
c62.8398 0.0302734 85.5195 27.46 85.5195 92.0596c0 65.1299 -22.6904 90.8203 -85.4404 90.8203h-93.9004z" />
    <glyph glyph-name="S" unicode="S" horiz-adv-x="610" 
d="M326.79 -15c-101.82 -5 -207.062 15 -288.621 64.4404l70.8896 110.82c52.7598 -28.75 130.45 -46.4297 193.57 -45.1602c56.2998 1.26953 95.8896 17.0791 96.0898 63.8789c-0.200195 37.9502 -23.3604 53.4004 -109.021 100.2
c-139.34 76.5098 -220.16 122.24 -219.96 240.65c-0.200195 125.02 89.9395 195.17 254.689 195.17c83.9199 0 166.75 -18.0498 226.47 -53.9795l-68.9502 -111.24c-42.4697 26.1699 -101.569 35.4795 -148.589 35.5596
c-54.21 -0.0800781 -91.0195 -14.3799 -90.8193 -57.0801c-0.200195 -25.4404 12.0195 -39.2002 106.3 -91.4502c145.11 -80.5596 222.48 -126.6 222.681 -250.319c-0.200195 -131.4 -87.71 -193.811 -244.729 -201.49z" />
    <glyph glyph-name="T" unicode="T" horiz-adv-x="588" 
d="M557.79 700v-129.2h-184.12v-570.8h-159.8v570.8h-184.11v129.2h528.03z" />
    <glyph glyph-name="U" unicode="U" horiz-adv-x="682" 
d="M343.14 -15c-172.56 0 -278.75 104.96 -278.62 287.96v427.04h159.67v-431.5c0 -99.7402 48.5703 -149.311 119.5 -149.28c70.8203 -0.0302734 119.08 49.54 118.85 149.2v431.58h159.7v-427.11c0.330078 -181.58 -105.18 -287.89 -279.1 -287.89z" />
    <glyph glyph-name="V" unicode="V" horiz-adv-x="697" 
d="M502.97 700h167.21l-230.7 -700h-182.43l-230.7 700h167.21l154.7 -532.94z" />
    <glyph glyph-name="W" unicode="W" horiz-adv-x="931" 
d="M729.91 700h174.55l-157.55 -700h-181.55l-97.25 470.22l-98.6504 -470.22h-183.31l-159.79 700h176l92.4102 -502.66l96.3398 502.66h153.43l94.6201 -501.41z" />
    <glyph glyph-name="X" unicode="X" horiz-adv-x="657" 
d="M630.88 0h-185.399l-116.87 226.16l-116.86 -226.16h-185.4l213.41 359.2l-194.3 340.8h185.4l97.4697 -210l98.04 210h185.4l-194.49 -340.49z" />
    <glyph glyph-name="Y" unicode="Y" horiz-adv-x="670" 
d="M643.37 700l-228.591 -454.66v-245.34h-159.8v245.26l-228.63 454.74h189.89l118.62 -297.84l118.61 297.84h189.9z" />
    <glyph glyph-name="Z" unicode="Z" 
d="M238.95 129.19h310.439v-129.19h-506.22v129.19l299.74 441.61h-278.34v129.2h474.12v-129.2z" />
    <glyph glyph-name="bracketleft" unicode="[" 
d="M101 197c-3 0 -6 0 -9 -1v-98c2 -1 6 -1 9 -1c26 0 31 19 31 50c0 32 -5 50 -31 50v0zM253 161v-24h-40v-38h47v-24h-76v145h76v-25h-47v-34h40zM99 73c-8 0 -23 0 -36 2v143c13 2 27 4 37 4c45 0 61 -25 61 -75c0 -51 -17 -74 -62 -74v0zM286 220h39l19 -80l19 80h40
c2 -35 4 -98 6 -145h-29c0 34 -1 70 -3 104l-20 -82h-27l-20 82h-1c-1 -34 -2 -70 -2 -104h-28c1 47 4 110 7 145v0zM482 73c-40 0 -53 23 -53 74s13 75 53 75s54 -24 54 -75s-14 -74 -54 -74v0zM482 197c-20 0 -24 -17 -24 -50c0 -32 4 -50 24 -50c21 0 25 18 25 50
c0 33 -4 50 -25 50zM472 496c52 0 62 -42 62 -63c0 -31 -31 -49 -52 -52c-72 -8 -124 -31 -166 -72c0 0 73 187 156 187v0zM139 444c94 0 156 -187 156 -187c-41 52 -93 72 -156 72c-31 0 -62 21 -62 52c0 32 21 63 62 63v0zM314 593c67 -65 -19 -243 -19 -243
c7 66 -16 118 -61 161c-22 22 -30 58 -9 81c22 22 59 30 89 1v0z" />
    <glyph glyph-name="backslash" unicode="\" 
d="M101 197c-3 0 -6 0 -9 -1v-98c2 -1 6 -1 9 -1c26 0 31 19 31 50c0 32 -5 50 -31 50v0zM253 161v-24h-40v-38h47v-24h-76v145h76v-25h-47v-34h40zM99 73c-8 0 -23 0 -36 2v143c13 2 27 4 37 4c45 0 61 -25 61 -75c0 -51 -17 -74 -62 -74v0zM286 220h39l19 -80l19 80h40
c2 -35 4 -98 6 -145h-29c0 34 -1 70 -3 104l-20 -82h-27l-20 82h-1c-1 -34 -2 -70 -2 -104h-28c1 47 4 110 7 145v0zM482 73c-40 0 -53 23 -53 74s13 75 53 75s54 -24 54 -75s-14 -74 -54 -74v0zM482 197c-20 0 -24 -17 -24 -50c0 -32 4 -50 24 -50c21 0 25 18 25 50
c0 33 -4 50 -25 50zM472 496c52 0 62 -42 62 -63c0 -31 -31 -49 -52 -52c-72 -8 -124 -31 -166 -72c0 0 73 187 156 187v0zM139 444c94 0 156 -187 156 -187c-41 52 -93 72 -156 72c-31 0 -62 21 -62 52c0 32 21 63 62 63v0zM314 593c67 -65 -19 -243 -19 -243
c7 66 -16 118 -61 161c-22 22 -30 58 -9 81c22 22 59 30 89 1v0z" />
    <glyph glyph-name="bracketright" unicode="]" 
d="M101 197c-3 0 -6 0 -9 -1v-98c2 -1 6 -1 9 -1c26 0 31 19 31 50c0 32 -5 50 -31 50v0zM253 161v-24h-40v-38h47v-24h-76v145h76v-25h-47v-34h40zM99 73c-8 0 -23 0 -36 2v143c13 2 27 4 37 4c45 0 61 -25 61 -75c0 -51 -17 -74 -62 -74v0zM286 220h39l19 -80l19 80h40
c2 -35 4 -98 6 -145h-29c0 34 -1 70 -3 104l-20 -82h-27l-20 82h-1c-1 -34 -2 -70 -2 -104h-28c1 47 4 110 7 145v0zM482 73c-40 0 -53 23 -53 74s13 75 53 75s54 -24 54 -75s-14 -74 -54 -74v0zM482 197c-20 0 -24 -17 -24 -50c0 -32 4 -50 24 -50c21 0 25 18 25 50
c0 33 -4 50 -25 50zM472 496c52 0 62 -42 62 -63c0 -31 -31 -49 -52 -52c-72 -8 -124 -31 -166 -72c0 0 73 187 156 187v0zM139 444c94 0 156 -187 156 -187c-41 52 -93 72 -156 72c-31 0 -62 21 -62 52c0 32 21 63 62 63v0zM314 593c67 -65 -19 -243 -19 -243
c7 66 -16 118 -61 161c-22 22 -30 58 -9 81c22 22 59 30 89 1v0z" />
    <glyph glyph-name="asciicircum" unicode="^" 
d="M101 197c-3 0 -6 0 -9 -1v-98c2 -1 6 -1 9 -1c26 0 31 19 31 50c0 32 -5 50 -31 50v0zM253 161v-24h-40v-38h47v-24h-76v145h76v-25h-47v-34h40zM99 73c-8 0 -23 0 -36 2v143c13 2 27 4 37 4c45 0 61 -25 61 -75c0 -51 -17 -74 -62 -74v0zM286 220h39l19 -80l19 80h40
c2 -35 4 -98 6 -145h-29c0 34 -1 70 -3 104l-20 -82h-27l-20 82h-1c-1 -34 -2 -70 -2 -104h-28c1 47 4 110 7 145v0zM482 73c-40 0 -53 23 -53 74s13 75 53 75s54 -24 54 -75s-14 -74 -54 -74v0zM482 197c-20 0 -24 -17 -24 -50c0 -32 4 -50 24 -50c21 0 25 18 25 50
c0 33 -4 50 -25 50zM472 496c52 0 62 -42 62 -63c0 -31 -31 -49 -52 -52c-72 -8 -124 -31 -166 -72c0 0 73 187 156 187v0zM139 444c94 0 156 -187 156 -187c-41 52 -93 72 -156 72c-31 0 -62 21 -62 52c0 32 21 63 62 63v0zM314 593c67 -65 -19 -243 -19 -243
c7 66 -16 118 -61 161c-22 22 -30 58 -9 81c22 22 59 30 89 1v0z" />
    <glyph glyph-name="underscore" unicode="_" 
d="M101 197c-3 0 -6 0 -9 -1v-98c2 -1 6 -1 9 -1c26 0 31 19 31 50c0 32 -5 50 -31 50v0zM253 161v-24h-40v-38h47v-24h-76v145h76v-25h-47v-34h40zM99 73c-8 0 -23 0 -36 2v143c13 2 27 4 37 4c45 0 61 -25 61 -75c0 -51 -17 -74 -62 -74v0zM286 220h39l19 -80l19 80h40
c2 -35 4 -98 6 -145h-29c0 34 -1 70 -3 104l-20 -82h-27l-20 82h-1c-1 -34 -2 -70 -2 -104h-28c1 47 4 110 7 145v0zM482 73c-40 0 -53 23 -53 74s13 75 53 75s54 -24 54 -75s-14 -74 -54 -74v0zM482 197c-20 0 -24 -17 -24 -50c0 -32 4 -50 24 -50c21 0 25 18 25 50
c0 33 -4 50 -25 50zM472 496c52 0 62 -42 62 -63c0 -31 -31 -49 -52 -52c-72 -8 -124 -31 -166 -72c0 0 73 187 156 187v0zM139 444c94 0 156 -187 156 -187c-41 52 -93 72 -156 72c-31 0 -62 21 -62 52c0 32 21 63 62 63v0zM314 593c67 -65 -19 -243 -19 -243
c7 66 -16 118 -61 161c-22 22 -30 58 -9 81c22 22 59 30 89 1v0z" />
    <glyph glyph-name="grave" unicode="`" 
d="M101 197c-3 0 -6 0 -9 -1v-98c2 -1 6 -1 9 -1c26 0 31 19 31 50c0 32 -5 50 -31 50v0zM253 161v-24h-40v-38h47v-24h-76v145h76v-25h-47v-34h40zM99 73c-8 0 -23 0 -36 2v143c13 2 27 4 37 4c45 0 61 -25 61 -75c0 -51 -17 -74 -62 -74v0zM286 220h39l19 -80l19 80h40
c2 -35 4 -98 6 -145h-29c0 34 -1 70 -3 104l-20 -82h-27l-20 82h-1c-1 -34 -2 -70 -2 -104h-28c1 47 4 110 7 145v0zM482 73c-40 0 -53 23 -53 74s13 75 53 75s54 -24 54 -75s-14 -74 -54 -74v0zM482 197c-20 0 -24 -17 -24 -50c0 -32 4 -50 24 -50c21 0 25 18 25 50
c0 33 -4 50 -25 50zM472 496c52 0 62 -42 62 -63c0 -31 -31 -49 -52 -52c-72 -8 -124 -31 -166 -72c0 0 73 187 156 187v0zM139 444c94 0 156 -187 156 -187c-41 52 -93 72 -156 72c-31 0 -62 21 -62 52c0 32 21 63 62 63v0zM314 593c67 -65 -19 -243 -19 -243
c7 66 -16 118 -61 161c-22 22 -30 58 -9 81c22 22 59 30 89 1v0z" />
    <glyph glyph-name="a" unicode="a" horiz-adv-x="515" 
d="M292.31 515c130.24 -2 180.011 -58.0498 180.171 -169.53v-345.47l-131.43 -11.3799l-9.82031 55.6699c-38.9805 -37 -87.8008 -59.29 -145.531 -59.29c-90.46 0 -152.39 53.4199 -147.56 150.55c5.48047 107.79 89.6709 175.89 281.761 180.6v28.8496
c0 37.2803 -12.7197 53.0898 -43.9199 55.4102c-35.5498 2.95996 -96.9297 -5.21973 -134.91 -28.0098l-63.9502 96.04c51.7998 26.6201 127.569 48.3105 215.189 46.5605zM191.891 154.75c0.200195 -37.4102 22.3906 -54.1191 52.3711 -54.1895
c30.9199 0.0595703 58.3896 18.1699 75.6396 31.9795v90.7402c-90.9404 -0.589844 -128.271 -20.04 -128.011 -68.5303z" />
    <glyph glyph-name="b" unicode="b" horiz-adv-x="579" 
d="M333.25 515c147.93 0 209.439 -102.729 209.56 -268.72c-0.120117 -162.33 -58.75 -261.28 -196.91 -261.28c-64.2197 0 -112.609 21.54 -152.3 59.7197l-11.8604 -56.0996l-133.81 11.3799l0.75 700h158.57v-220.86c35.1299 24.0703 75.8096 35.8604 126 35.8604z
M295.87 100.541c65.6602 0 80.6602 53.6699 80.7803 141.74c-0.120117 98.0996 -20.1104 157.81 -90.4805 157.81c-33.5801 0 -55.8604 -13.5898 -78.9199 -33.4795v-224.15c23.3301 -21.8301 49.1602 -41.9199 88.6201 -41.9199z" />
    <glyph glyph-name="c" unicode="c" horiz-adv-x="493" 
d="M284.51 -15.0195c-158.48 0.700195 -248.162 99.3809 -248.162 265.021c0 167 91.7305 265 248.5 265c70 0 129.73 -19.6396 175.75 -55.2598l-58.2305 -87.5996c-30.9297 20.3096 -67.3193 28.2695 -97.1289 28.2695c-74.79 0 -110.24 -50.6699 -109.91 -150.11
c-0.330078 -101.36 36.4297 -150.71 107.39 -150.62c29.2305 -0.0898438 70.6309 8.81055 101.061 29.3203l58.2305 -87.6904c-42.9297 -33.8301 -101.399 -56.3105 -177.499 -56.3301z" />
    <glyph glyph-name="d" unicode="d" horiz-adv-x="579" 
d="M530.91 0l-133.811 -11.3809l-11.8604 56.0898c-39.6797 -38.1699 -88.0693 -59.71 -152.289 -59.71c-138.15 0 -196.49 98.9502 -196.601 261.28c0.110352 165.99 61.3301 268.721 209.25 268.721c50.1904 0 90.8604 -11.79 125.99 -35.8496v220.85h158.58z
M202.51 242.279c0.120117 -88.0703 14.8086 -141.74 80.4785 -141.74c39.4502 0 65.2803 20.0801 88.6006 41.9102v224.16c-23.0596 19.8896 -45.3291 33.4795 -78.9092 33.4795c-70.3701 0 -90.0498 -59.71 -90.1699 -157.81z" />
    <glyph glyph-name="e" unicode="e" horiz-adv-x="537" 
d="M506.06 250.87c-0.120117 -7.41016 -0.120117 -27.1982 -1.5 -44.9482l-307.92 0.0703125c7.87012 -76.1104 39.6602 -112.561 103.57 -112.561c41.0898 0.0195312 90.9902 15.3799 125.01 44.5596l58.6797 -87.8799c-44.5898 -38.75 -111.89 -65.1104 -196.13 -65.1299
c-161.43 0.0195312 -251.5 96.6494 -251.42 264.89c-0.0800781 168.18 89.9902 265.13 248.021 265.13c162.24 0 221.55 -101.73 221.689 -264.131zM281.46 405.172c-49.7197 0 -75.1396 -34.4697 -83.5498 -99.8701l152.96 -0.459961
c-3.69043 63.8496 -18.6104 100.33 -69.4102 100.33z" />
    <glyph glyph-name="f" unicode="f" horiz-adv-x="404" 
d="M303.87 639.51c-31.6504 -0.179688 -50.46 -12.6699 -50.2598 -60.1504v-79.3604h95.8496v-103.67h-95.8496v-396.33h-152.78v396.33h-62.6602v103.67h62.6602v73.4004c-0.120117 114.28 53.3398 172.601 183.58 169.601c46.1396 -1 78.5996 -8.69043 119.149 -28.0303
l-48.9102 -86.1699c-15.2695 7.53027 -33.8096 10.5303 -50.7793 10.71z" />
    <glyph glyph-name="g" unicode="g" horiz-adv-x="552" 
d="M267.06 134.89c155.78 0 235.432 -41.541 235.111 -160.561c0.320312 -120.75 -88.8896 -170.41 -236.79 -169.43c-149.73 1 -238.671 53.4297 -237.431 162.649c0.519531 49.9004 20.5498 82.0508 62.1494 100.631c-17.7002 15.1904 -28.9199 35.8105 -28.9199 61.5801
c0 25.5498 10.5703 47.5898 51.2803 71.8594l12.0801 7.05957c-51.6104 27.3096 -80.1904 74.1797 -80.1904 137.97c0 105.65 76.5098 168.351 213.01 168.351c39.8896 0 73.2793 -5.50977 100.669 -15h165.21l6.9502 -79.4004l-79.6104 -14.0596
c11.7305 -16.2197 17.6807 -36.21 17.6211 -58.9004c0.169922 -102.68 -73.2197 -166.689 -211.14 -166.689c-9.69043 0 -19.1006 0.30957 -28.2109 0.939453l-20.7695 -12.29c-8.2002 -5.30957 -9.85059 -11.1494 -10.0303 -16.9492
c0.120117 -11.3301 10.6504 -17.7598 22.9307 -17.7598h45.1299h0.950195zM257.051 418.839c-47.6904 0 -70.7793 -23.8096 -70.8789 -69.8691c0.0996094 -45.96 23.2393 -69.8203 70.8896 -69.8203c46.9297 0 69.4492 23 69.4492 69.5498
c0 46.25 -22.5098 70.1396 -69.46 70.1396zM366.321 -30.4814c0.320312 43.1104 -21.2305 65.1895 -100.66 65.1895c-67.6699 0 -102.02 -16.4697 -101.949 -65.1494c-0.0703125 -46.4502 29.1602 -64.4502 102.43 -64.4502c73.1299 0 99.8701 18.1699 100.18 64.4102z" />
    <glyph glyph-name="h" unicode="h" horiz-adv-x="548" 
d="M354.24 515c101.78 0 150.762 -49.002 150.901 -153.302v-361.7h-152.7v327.95c-0.0302734 44.1904 -10.79 72.8203 -55.4102 72.2705c-30.2305 -0.129883 -57.5605 -12.5596 -91.3906 -43.1191v-357.1h-152.71v700h152.71v-238.11
c42.8496 36.71 89.8799 53.1104 148.6 53.1104z" />
    <glyph glyph-name="i" unicode="i" horiz-adv-x="279" 
d="M141.94 557.8c-49.1602 0 -89.0098 39.8496 -89.0098 89.0098s39.8496 89.0098 89.0098 89.0098s89.0098 -39.8496 89.0098 -89.0098s-39.8496 -89.0098 -89.0098 -89.0098zM65.5908 0v500h152.71v-500h-152.71z" />
    <glyph glyph-name="j" unicode="j" horiz-adv-x="291" 
d="M153.77 557.31c-49.5498 0.139648 -89.1992 40.1094 -89.3496 89.3496c0.150391 48.5303 39.8906 88.8203 89.3506 88.6699c49.2197 0.150391 89.5098 -39.5098 89.3496 -88.6699c0.160156 -49.5498 -40.1602 -89.21 -89.3506 -89.3496zM51.3408 -197.051
c-49.5596 1 -77.7295 10.6816 -104.52 21.6016l49.3896 88c13.0801 -3.98047 28.2002 -6.61035 38.54 -6.61035c27.6504 0 42.7402 18.1699 42.5898 55.1895v538.87h152.89v-543.16c0.150391 -104.94 -61.5195 -156.4 -178.89 -153.891z" />
    <glyph glyph-name="k" unicode="k" horiz-adv-x="578" 
d="M52.9297 0v700h152.88v-700h-152.88zM347.31 294.1l207.15 -294.1h-166.07l-175.7 282.6l131.95 217.4h165.18z" />
    <glyph glyph-name="l" unicode="l" horiz-adv-x="340" 
d="M223.89 -15c-105.43 -2 -170.96 21.3096 -170.96 139.79v575.21h154.08v-552.479c0 -40.8301 12.1797 -50.6602 34.7695 -50.6602c12.5 0 22.2402 2 35.3799 5.21973l40.0498 -99.0098c-37.5898 -15.0703 -62.5195 -17.2607 -93.3193 -18.0703z" />
    <glyph glyph-name="m" unicode="m" horiz-adv-x="812" 
d="M624.68 515c97.5098 0 144.612 -49.0029 144.652 -153.303v-361.7h-152.61v327.95c-0.139648 43.8203 -8.5293 72.1406 -49.5195 72.1406c-28.4404 0 -52.5205 -12.7998 -82.2607 -42.3594v-357.729h-152.61v327.95c0.320312 44.5 -9.43945 72.1396 -49.7393 72.1396
c-28.4102 0 -53.0703 -13.3799 -82.0508 -42.3301v-357.76h-152.61v494.86l131.93 11.5l9.01953 -52.6201c44.4502 43.3301 92.2305 61.2598 151.181 61.2598c63.9697 0 106.819 -21.3896 128.43 -65.9697c43.4297 44.4404 91.8994 65.9707 156.189 65.9707z" />
    <glyph glyph-name="n" unicode="n" horiz-adv-x="543" 
d="M349.24 515c101.78 0 150.761 -49.001 150.9 -153.301v-361.7h-152.7v327.95c-0.0302734 44.1904 -10.79 72.8203 -55.4102 72.2705c-30.2305 -0.129883 -57.5605 -12.5596 -91.3906 -43.1191v-357.1h-152.71v494.86l131.43 11.5l9.69043 -54.9805
c45.9805 44.0996 96.1406 63.6191 160.19 63.6191z" />
    <glyph glyph-name="o" unicode="o" horiz-adv-x="582" 
d="M290.93 -15.04c-160.02 0 -254.58 98.4307 -254.58 265.021c0 161.46 94.8398 265.02 254.87 265.02c159.81 0 254.3 -98.4404 254.3 -265.021c0 -166.59 -94.5596 -265.02 -254.59 -265.02zM290.929 99.6709c62.4404 0 95.7197 50.0195 95.7197 150.31
s-33 150.43 -95.4297 150.43c-62.6797 0 -96 -50.1396 -96 -150.43s33.2803 -150.31 95.71 -150.31z" />
    <glyph glyph-name="p" unicode="p" horiz-adv-x="584" 
d="M350.9 515c138.15 0 196.66 -98.9492 196.78 -261.279c-0.120117 -165.99 -61.5098 -268.721 -209.43 -268.721c-50.1904 0 -90.8701 11.7803 -126 35.8506v-200.94h-158.57l-0.75 680.09l133.81 11.3799l11.8604 -56.0996
c39.6904 38.1699 88.0801 59.7197 152.3 59.7197zM291.17 99.9111c70.3701 0 90.2305 59.7109 90.3506 157.811c-0.120117 88.0703 -14.9902 141.73 -80.6602 141.73c-39.4502 0 -65.2803 -20.0801 -88.6104 -41.9102v-224.15
c23.0596 -19.9004 45.3398 -33.4805 78.9199 -33.4805z" />
    <glyph glyph-name="q" unicode="q" horiz-adv-x="579" 
d="M397.09 511.38l133.81 -11.3809l-0.75 -680.09h-158.57v200.94c-35.1299 -24.0703 -75.8096 -35.8506 -126 -35.8506c-147.92 0 -209.12 102.73 -209.23 268.721c0.110352 162.33 58.4307 261.28 196.591 261.28c64.2197 0 112.6 -21.54 152.29 -59.7197z
M292.659 99.9092c33.5801 0 55.8496 13.5791 78.9199 33.4795v224.15c-23.3301 21.8301 -49.1602 41.9102 -88.6104 41.9102c-65.6699 0 -80.3398 -53.6602 -80.46 -141.73c0.120117 -98.0996 19.7803 -157.81 90.1504 -157.81z" />
    <glyph glyph-name="r" unicode="r" horiz-adv-x="424" 
d="M340.68 515c18.29 0 38.8398 -2.42969 60.1602 -7.08008l-21.4102 -114.61c-24.2305 4.19043 -45.0107 6.81055 -63.3604 6.81055c-48.7197 0.0302734 -80.71 -19.2695 -115.67 -67.46v-332.66h-152.47v494.86l132.68 11.5l11.46 -69.8496
c42.2002 53.7695 89.9102 78.4893 148.61 78.4893z" />
    <glyph glyph-name="s" unicode="s" horiz-adv-x="451" 
d="M229.55 -15c-83.7002 0 -157.601 22.6807 -206.381 61.2207l50.3301 88.8896c36.75 -24.9297 84.8799 -44.3994 134.16 -44.3994c46.21 0 65.2803 16.1201 65.2803 43.4805c0 21.71 -11.5498 31.5703 -73.3701 61.2803c-98.3701 47.3701 -161.74 81.8701 -161.74 169.88
c0 95.8701 75.3701 149.65 194.28 149.65c72.3301 0 132.28 -19.7305 177.98 -51.1201l-47.3496 -87.1104c-29.1299 17.1396 -69.3096 34.5596 -111.189 34.5596c-38.6201 0 -53.9102 -14.25 -57.2305 -34.5703c-4.26953 -25.9805 13.3408 -35.9502 67.7207 -61.8701
c128.93 -61.46 167.699 -94.9502 167.699 -173.24c0 -108.24 -77.6104 -156.65 -200.19 -156.65z" />
    <glyph glyph-name="t" unicode="t" horiz-adv-x="400" 
d="M325.8 104.2l39.2217 -97.001c-37.7803 -16.71 -67.4707 -21.2695 -101.291 -22.1992c-116.97 -3 -172.18 36 -172.18 154v257.33h-61.79v103.67h61.79l22.04 128.3h130.76v-128.3h91.8496v-103.67h-91.8496v-242.23c0 -51.5898 21.7695 -56.5996 41.2793 -56.5996
c15.0098 0 27.0195 2.86035 40.1699 6.7002z" />
    <glyph glyph-name="u" unicode="u" horiz-adv-x="529" 
d="M333.14 500l152.64 -0.00195312v-500l-130.98 -11.4297l-10.0596 58.4004c-44.6104 -43.0996 -93.2705 -61.9697 -154.681 -61.9697c-99.2197 0 -147.13 49 -147.13 153.3v361.7h152.64v-327.96c0.320312 -44.1797 9.05078 -72.1299 52.1807 -72.1299
c28.9102 0 54.3203 12.8604 85.3906 42.5908v357.5z" />
    <glyph glyph-name="v" unicode="v" horiz-adv-x="554" 
d="M368.48 500h162.031l-159.4 -500h-188.53l-159.41 500h162.03l91.6396 -360.99z" />
    <glyph glyph-name="w" unicode="w" horiz-adv-x="741" 
d="M566.38 500h151.221l-122.94 -500h-152.82l-71.4502 317.02l-71.46 -317.02h-152.82l-122.94 500h151.22l59.3604 -343.8l65.4805 343.8h142.31l65.4805 -343.8z" />
    <glyph glyph-name="x" unicode="x" horiz-adv-x="556" 
d="M532.93 0h-170.92l-83.96 157.45l-83.96 -157.45h-170.92l168.63 260.17l-155.45 239.83h170.92l70.7803 -132.73l70.7803 132.73h170.92l-155.45 -239.83z" />
    <glyph glyph-name="y" unicode="y" horiz-adv-x="560" 
d="M373.35 500h163.541l-178.53 -557.11c-38.8203 -121.81 -95.4307 -158.54 -206.801 -173.89l-32.1797 106.37c81.4902 11.2998 100.71 27.71 118.3 98.1201l6.83008 26.5098h-62.7598l-158.57 500h162l93.0098 -369.26z" />
    <glyph glyph-name="z" unicode="z" horiz-adv-x="443" 
d="M191.87 103.67h229.56v-103.67h-398.26v103.67l218.77 292.66h-199.56v103.67h368.75v-103.67z" />
    <glyph glyph-name="braceleft" unicode="{" 
d="M101 197c-3 0 -6 0 -9 -1v-98c2 -1 6 -1 9 -1c26 0 31 19 31 50c0 32 -5 50 -31 50v0zM253 161v-24h-40v-38h47v-24h-76v145h76v-25h-47v-34h40zM99 73c-8 0 -23 0 -36 2v143c13 2 27 4 37 4c45 0 61 -25 61 -75c0 -51 -17 -74 -62 -74v0zM286 220h39l19 -80l19 80h40
c2 -35 4 -98 6 -145h-29c0 34 -1 70 -3 104l-20 -82h-27l-20 82h-1c-1 -34 -2 -70 -2 -104h-28c1 47 4 110 7 145v0zM482 73c-40 0 -53 23 -53 74s13 75 53 75s54 -24 54 -75s-14 -74 -54 -74v0zM482 197c-20 0 -24 -17 -24 -50c0 -32 4 -50 24 -50c21 0 25 18 25 50
c0 33 -4 50 -25 50zM472 496c52 0 62 -42 62 -63c0 -31 -31 -49 -52 -52c-72 -8 -124 -31 -166 -72c0 0 73 187 156 187v0zM139 444c94 0 156 -187 156 -187c-41 52 -93 72 -156 72c-31 0 -62 21 -62 52c0 32 21 63 62 63v0zM314 593c67 -65 -19 -243 -19 -243
c7 66 -16 118 -61 161c-22 22 -30 58 -9 81c22 22 59 30 89 1v0z" />
    <glyph glyph-name="bar" unicode="|" 
d="M101 197c-3 0 -6 0 -9 -1v-98c2 -1 6 -1 9 -1c26 0 31 19 31 50c0 32 -5 50 -31 50v0zM253 161v-24h-40v-38h47v-24h-76v145h76v-25h-47v-34h40zM99 73c-8 0 -23 0 -36 2v143c13 2 27 4 37 4c45 0 61 -25 61 -75c0 -51 -17 -74 -62 -74v0zM286 220h39l19 -80l19 80h40
c2 -35 4 -98 6 -145h-29c0 34 -1 70 -3 104l-20 -82h-27l-20 82h-1c-1 -34 -2 -70 -2 -104h-28c1 47 4 110 7 145v0zM482 73c-40 0 -53 23 -53 74s13 75 53 75s54 -24 54 -75s-14 -74 -54 -74v0zM482 197c-20 0 -24 -17 -24 -50c0 -32 4 -50 24 -50c21 0 25 18 25 50
c0 33 -4 50 -25 50zM472 496c52 0 62 -42 62 -63c0 -31 -31 -49 -52 -52c-72 -8 -124 -31 -166 -72c0 0 73 187 156 187v0zM139 444c94 0 156 -187 156 -187c-41 52 -93 72 -156 72c-31 0 -62 21 -62 52c0 32 21 63 62 63v0zM314 593c67 -65 -19 -243 -19 -243
c7 66 -16 118 -61 161c-22 22 -30 58 -9 81c22 22 59 30 89 1v0z" />
    <glyph glyph-name="braceright" unicode="}" 
d="M101 197c-3 0 -6 0 -9 -1v-98c2 -1 6 -1 9 -1c26 0 31 19 31 50c0 32 -5 50 -31 50v0zM253 161v-24h-40v-38h47v-24h-76v145h76v-25h-47v-34h40zM99 73c-8 0 -23 0 -36 2v143c13 2 27 4 37 4c45 0 61 -25 61 -75c0 -51 -17 -74 -62 -74v0zM286 220h39l19 -80l19 80h40
c2 -35 4 -98 6 -145h-29c0 34 -1 70 -3 104l-20 -82h-27l-20 82h-1c-1 -34 -2 -70 -2 -104h-28c1 47 4 110 7 145v0zM482 73c-40 0 -53 23 -53 74s13 75 53 75s54 -24 54 -75s-14 -74 -54 -74v0zM482 197c-20 0 -24 -17 -24 -50c0 -32 4 -50 24 -50c21 0 25 18 25 50
c0 33 -4 50 -25 50zM472 496c52 0 62 -42 62 -63c0 -31 -31 -49 -52 -52c-72 -8 -124 -31 -166 -72c0 0 73 187 156 187v0zM139 444c94 0 156 -187 156 -187c-41 52 -93 72 -156 72c-31 0 -62 21 -62 52c0 32 21 63 62 63v0zM314 593c67 -65 -19 -243 -19 -243
c7 66 -16 118 -61 161c-22 22 -30 58 -9 81c22 22 59 30 89 1v0z" />
    <glyph glyph-name="asciitilde" unicode="~" 
d="M101 197c-3 0 -6 0 -9 -1v-98c2 -1 6 -1 9 -1c26 0 31 19 31 50c0 32 -5 50 -31 50v0zM253 161v-24h-40v-38h47v-24h-76v145h76v-25h-47v-34h40zM99 73c-8 0 -23 0 -36 2v143c13 2 27 4 37 4c45 0 61 -25 61 -75c0 -51 -17 -74 -62 -74v0zM286 220h39l19 -80l19 80h40
c2 -35 4 -98 6 -145h-29c0 34 -1 70 -3 104l-20 -82h-27l-20 82h-1c-1 -34 -2 -70 -2 -104h-28c1 47 4 110 7 145v0zM482 73c-40 0 -53 23 -53 74s13 75 53 75s54 -24 54 -75s-14 -74 -54 -74v0zM482 197c-20 0 -24 -17 -24 -50c0 -32 4 -50 24 -50c21 0 25 18 25 50
c0 33 -4 50 -25 50zM472 496c52 0 62 -42 62 -63c0 -31 -31 -49 -52 -52c-72 -8 -124 -31 -166 -72c0 0 73 187 156 187v0zM139 444c94 0 156 -187 156 -187c-41 52 -93 72 -156 72c-31 0 -62 21 -62 52c0 32 21 63 62 63v0zM314 593c67 -65 -19 -243 -19 -243
c7 66 -16 118 -61 161c-22 22 -30 58 -9 81c22 22 59 30 89 1v0z" />
    </font>
</defs>
</svg>
